<?xml version="1.0" encoding="utf-8"?>
<!-- Generator: Adobe Illustrator 16.0.0, SVG Export Plug-In . SVG Version: 6.00 Build 0)  -->
<!DOCTYPE svg PUBLIC "-//W3C//DTD SVG 1.1//EN" "http://www.w3.org/Graphics/SVG/1.1/DTD/svg11.dtd">
<svg version="1.1" id="Layer_5" xmlns="http://www.w3.org/2000/svg" xmlns:xlink="http://www.w3.org/1999/xlink" x="0px" y="0px"
	 width="100px" height="100px" viewBox="0 0 100 100" enable-background="new 0 0 100 100" xml:space="preserve">
<g>
	<path d="M92,3H8C5.238,3,3,5.238,3,8v84c0,2.762,2.238,5,5,5h84c2.762,0,5-2.238,5-5V8C97,5.238,94.762,3,92,3z M48.064,76.974
		H36.082c-0.563-0.755-0.922-1.623-1.074-2.605c-0.154-0.982-0.256-2.001-0.309-3.059L34.4,60.959
		c-0.102-2.117-0.625-3.776-1.576-4.987c-0.948-1.21-2.551-1.814-4.799-1.814h-5.777v22.816H11.313V23.028H31.51
		c4.557,0,8.101,1.146,10.632,3.438c2.529,2.293,3.796,5.78,3.796,10.465c0,3.626-0.734,6.586-2.203,8.878
		c-1.467,2.292-3.744,3.765-6.832,4.422v0.15c1.872,0.252,3.363,0.716,4.479,1.397c1.112,0.682,1.975,1.661,2.581,2.944
		c0.607,1.286,1.025,2.911,1.253,4.876s0.366,4.381,0.417,7.253c0.05,2.869,0.217,5.06,0.495,6.573
		c0.277,1.509,0.923,2.542,1.937,3.098V76.974z M88.687,76.974h-8.05v-4.984h-0.15c-1.318,2.112-2.898,3.652-4.747,4.605
		c-1.849,0.959-4.061,1.437-6.642,1.437c-3.342,0-6.064-0.616-8.165-1.851c-2.102-1.232-3.745-3.059-4.934-5.478
		c-1.189-2.416-1.989-5.402-2.392-8.95c-0.407-3.555-0.609-7.671-0.609-12.354c0-4.536,0.291-8.515,0.875-11.939
		c0.581-3.425,1.58-6.284,2.999-8.574c1.416-2.29,3.291-4.018,5.618-5.177c2.326-1.159,5.24-1.739,8.732-1.739
		c5.971,0,10.275,1.475,12.908,4.422c2.631,2.947,3.948,7.166,3.948,12.655H77.6c0-0.956-0.113-1.975-0.342-3.062
		c-0.226-1.082-0.596-2.062-1.102-2.944c-0.504-0.881-1.149-1.611-1.936-2.193c-0.783-0.577-1.734-0.868-2.847-0.868
		c-2.633,0-4.53,1.463-5.694,4.383c-1.166,2.921-1.746,7.758-1.746,14.509c0,3.271,0.101,6.207,0.302,8.8
		c0.201,2.596,0.573,4.813,1.103,6.651c0.531,1.836,1.291,3.245,2.277,4.23c0.988,0.979,2.264,1.473,3.836,1.473
		c0.657,0,1.377-0.178,2.163-0.531c0.784-0.35,1.519-0.879,2.201-1.584c0.683-0.706,1.253-1.599,1.708-2.684
		c0.456-1.084,0.686-2.353,0.686-3.815v-5.516h-7.215v-8.01h17.692V76.974z"/>
	<path d="M27.41,31.038h-5.162v15.561h4.556c2.631,0,4.655-0.615,6.074-1.851c1.416-1.231,2.124-3.311,2.124-6.231
		C35.002,33.532,32.474,31.038,27.41,31.038z"/>
</g>
</svg>
