<?xml version="1.0" encoding="utf-8"?>
<!-- Generator: Adobe Illustrator 16.0.0, SVG Export Plug-In . SVG Version: 6.00 Build 0)  -->
<!DOCTYPE svg PUBLIC "-//W3C//DTD SVG 1.1//EN" "http://www.w3.org/Graphics/SVG/1.1/DTD/svg11.dtd">
<svg version="1.1" id="Layer_4" xmlns="http://www.w3.org/2000/svg" xmlns:xlink="http://www.w3.org/1999/xlink" x="0px" y="0px"
	 width="100px" height="100px" viewBox="20 -25 100 100" enable-background="new 0 0 100 100" xml:space="preserve">
<g>
	<path fill="#0076df" d="M1.695,16.322h25.219c5.688,0,10.111,1.43,13.273,4.292c3.159,2.861,4.74,7.217,4.74,13.065
		c0,4.527-0.917,8.223-2.75,11.084c-1.833,2.863-4.677,4.702-8.532,5.521v0.188c2.338,0.315,4.202,0.896,5.594,1.745
		c1.39,0.85,2.466,2.075,3.223,3.679c0.759,1.604,1.28,3.633,1.563,6.086c0.286,2.453,0.459,5.47,0.523,9.056
		c0.062,3.584,0.268,6.321,0.616,8.207c0.347,1.888,1.152,3.176,2.418,3.867v0.565H32.622c-0.704-0.941-1.152-2.026-1.342-3.254
		c-0.193-1.226-0.321-2.499-0.384-3.819l-0.375-12.924c-0.126-2.643-0.781-4.717-1.967-6.227c-1.186-1.509-3.186-2.264-5.993-2.264
		h-7.213v28.487H1.695V16.322z M15.349,45.754h5.687c3.287,0,5.814-0.77,7.586-2.311c1.769-1.541,2.653-4.135,2.653-7.784
		c0-6.224-3.159-9.337-9.48-9.337h-6.445V45.754z"/>
	<path fill="#0076df" d="M84.462,36.321c0-1.193-0.143-2.468-0.427-3.821c-0.283-1.352-0.744-2.577-1.375-3.679c-0.632-1.1-1.438-2.012-2.417-2.737
		C79.264,25.363,78.078,25,76.688,25c-3.288,0-5.657,1.824-7.111,5.472c-1.455,3.649-2.18,9.687-2.18,18.113
		c0,4.089,0.126,7.753,0.378,10.99c0.252,3.241,0.713,6.008,1.375,8.304c0.664,2.295,1.612,4.055,2.844,5.282
		C73.229,74.387,74.822,75,76.783,75c0.819,0,1.722-0.221,2.701-0.662c0.979-0.437,1.896-1.099,2.75-1.979s1.563-1.995,2.133-3.349
		c0.568-1.352,0.854-2.939,0.854-4.764v-6.887h-9.007V47.357h22.091v36.32H88.254v-6.224h-0.188c-1.646,2.64-3.62,4.56-5.926,5.753
		C79.831,84.401,77.066,85,73.845,85c-4.171,0-7.57-0.771-10.193-2.313c-2.624-1.54-4.678-3.819-6.161-6.838
		c-1.486-3.019-2.482-6.745-2.987-11.179c-0.507-4.436-0.759-9.575-0.759-15.426c0-5.661,0.363-10.628,1.091-14.906
		c0.726-4.275,1.974-7.845,3.746-10.706c1.768-2.86,4.107-5.016,7.015-6.462C68.501,15.725,72.138,15,76.499,15
		c7.456,0,12.829,1.839,16.117,5.52c3.286,3.679,4.93,8.947,4.93,15.802H84.462z"/>
</g>
</svg>
